# xmcd
#
# Track frame offsets: 
#        150
#        25959
#        43359
#        69347
#        109547
#        145932
#        177544
#        224869
#        268537
#        288032
#
# Disc length: 4226 seconds
#
# Revision: 0
# Processed by: cddbd v1.5.2PL0 Copyright (c) Steve Scherf et al.
# Submitted via: ExactAudioCopyFreeDBPlugin 1.0
#
DISCID=9d10800a
DTITLE=Twelve Bar Blues Band - Life Is Hard
DYEAR=2012
DGENRE=Blues
TTITLE0=Bluesman
TTITLE1=Why Are People Like That
TTITLE2=Don't Ask Me Why
TTITLE3=Life Is Hard
TTITLE4=Sometimes You Win Sometimes You Lose
TTITLE5=Living In Your Own Cell
TTITLE6=Me And The Devil Blues
TTITLE7=Old Love
TTITLE8=Turn The Lights Down Low
TTITLE9=You've Got To Move
EXTD=
EXTT0=
EXTT1=
EXTT2=
EXTT3=
EXTT4=
EXTT5=
EXTT6=
EXTT7=
EXTT8=
EXTT9=
PLAYORDER=
